<?xml version="1.0" encoding="utf-8"?>
<!-- Generator: Adobe Illustrator 18.0.0, SVG Export Plug-In . SVG Version: 6.00 Build 0)  -->
<!DOCTYPE svg PUBLIC "-//W3C//DTD SVG 1.1//EN" "http://www.w3.org/Graphics/SVG/1.1/DTD/svg11.dtd">
<svg version="1.1" id="Layer_1" xmlns="http://www.w3.org/2000/svg" xmlns:xlink="http://www.w3.org/1999/xlink" x="0px" y="0px"
	 viewBox="0 0 286 108" enable-background="new 0 0 286 108" xml:space="preserve">
<g>
	<g>
		<g>
			<path fill="#B371A2" d="M137.7,53.5c0,14.8-12,26.7-26.7,26.7c-14.8,0-26.7-12-26.7-26.7c0-14.8,12-26.7,26.7-26.7
				C125.8,26.8,137.7,38.8,137.7,53.5z"/>
		</g>
		<path fill="#EF5227" d="M47.9,26.8L47.9,26.8l-19.4,0c-1,0-1.8,0.8-1.8,1.9v49.5c0,1,0.7,2.1,1.8,2.1h19.4
			c14.7,0,26.6-12,26.6-26.7C74.5,38.8,62.6,26.7,47.9,26.8z"/>
		<path fill="#FEC356" d="M194.9,27h-47.1c-1,0-2,0.8-2,1.8v16.8c0,1,1,1.8,2,1.8h7.5v31c0,1,1,2,2.1,2h28c1,0,1.7-1,1.7-2v-31h7.9
			c1,0,1.6-0.8,1.6-1.8V28.7C196.5,27.8,195.9,27,194.9,27z"/>
		<path fill="#54C0D6" d="M236.1,27c-12.4,0-22.1,10-22.5,22.3v2.9c0,1-1,1.8-2,1.8h-4.7c-1,0-1.9,0.8-1.9,1.8v1.6
			c0,12.7,10.4,23.1,23.3,23.1c12.9,0,23.3-10.4,23.3-23.1v-1.6c0-1,0.9-1.8,1.9-1.8h3.4c0.9,0,1.4-0.7,1.4-1.6v-3.1
			C257.9,37,248.5,27,236.1,27z"/>
	</g>
</g>
</svg>
